<svg xmlns="http://www.w3.org/2000/svg" width="320.425" height="332.107" viewBox="0 0 84.779 87.87" xmlns:v="https://vecta.io/nano"><path d="M19.476 13.994c-3.46 1.289-1.154 29.968-.267 31.003.017 9.761-6.734 9.22-6.108 16.091.744 21.92 36.749 23.206 41.208 21.027s24.128-31.508 25.346-32.741-6.953-7.682-5.988-12.876c0 0-6.819-31.91-12.983-31.494s-13.442 19.7-13.442 19.7l-14.929 2.497s-9.376-14.496-12.837-13.207z"/><ellipse ry="6.014" rx="4.41" cy="45.532" cx="25.329" fill="#0df5ff"/><path d="M23.656 56.21l12.214.324-8.431 3.974z" fill="#f877ff" stroke="#000" stroke-width=".265"/><ellipse ry="8.492" rx="7.061" cy="46.141" cx="44.922" fill="#0df5ff"/><path d="M16.135 58.093l-9.221-2.138m9.755 6.281l-11.626.802m14.834 3.341L7.849 70.121" stroke="#000" fill="none" stroke-width="1.265"/><path d="M43.931 39.117c-2.825 4.446-4.084 8.818-.535 12.963 2.22-1.619 4.048-8.057.535-12.963zm-19.495 1.804c-2.179 2.796-3.15 5.545-.412 8.152 1.712-1.018 3.122-5.067.412-8.152z"/><g fill="#fff"><ellipse ry="1.938" rx="2.005" cy="44.262" cx="45.802"/><ellipse ry="1.421" rx="1.47" cy="44.311" cx="25.222"/></g></svg>