<svg xmlns="http://www.w3.org/2000/svg" width="189.689" height="197.222" viewBox="0 0 50.189 52.182" xmlns:v="https://vecta.io/nano"><path d="M10.215 6.637c-2.248.837-.75 19.471-.173 20.143.011 6.342-4.375 5.99-3.968 10.455.483 14.242 23.877 15.077 26.774 13.662s15.676-20.471 16.468-21.273-4.518-4.991-3.891-8.366c0 0-4.43-20.733-8.435-20.462s-8.734 12.799-8.734 12.799l-9.7 1.622s-6.092-9.418-8.34-8.581z"/><ellipse ry="3.907" rx="2.865" cy="27.128" cx="14.017" fill="#0df5ff"/><path d="M12.93 34.066l7.936.211-5.478 2.582z" fill="#f877ff" stroke="#000" stroke-width=".265"/><ellipse ry="5.517" rx="4.588" cy="27.524" cx="26.747" fill="#0df5ff"/><path d="M8.044 35.289L2.053 33.9m6.338 4.081l-7.554.521m9.638 2.171L2.66 43.104" fill="none" stroke="#000" stroke-width="1.265"/><path d="M26.104 22.96c-1.835 2.889-2.653 5.729-.348 8.422 1.442-1.052 2.63-5.235.348-8.422zm-12.666 1.172c-1.416 1.817-2.047 3.603-.268 5.297 1.112-.661 2.028-3.292.268-5.297z"/><g transform="matrix(.649721 0 0 .649721 -2.43933 -2.454833)" fill="#fff"><ellipse ry="1.938" rx="2.005" cy="44.262" cx="45.802"/><ellipse ry="1.421" rx="1.47" cy="44.311" cx="25.222"/></g></svg>